<?xml version="1.0" encoding="utf-8"?>
<svg xmlns="http://www.w3.org/2000/svg" width="312px" height="62px">
<path d="M68.45,46.89c0-2.94,0-3.48-0.04-4.1c-0.04-0.66-0.19-0.97-0.83-1.1c-0.16-0.04-0.48-0.06-0.75-0.06
	c-0.22,0-0.33-0.04-0.33-0.17c0-0.13,0.13-0.18,0.42-0.18c1.02,0,2.24,0.06,2.82,0.06c0.46,0,1.68-0.06,2.38-0.06
	c0.29,0,0.43,0.04,0.43,0.18c0,0.14-0.11,0.17-0.31,0.17c-0.21,0-0.33,0.02-0.56,0.06c-0.52,0.09-0.67,0.42-0.71,1.1
	c-0.04,0.62-0.04,1.16-0.04,4.1v2.71c0,2.81,0.56,3.98,1.51,4.76c0.87,0.72,1.76,0.79,2.42,0.79c0.85,0,1.9-0.27,2.67-1.04
	c1.06-1.06,1.12-2.81,1.12-4.8v-2.42c0-2.94,0-3.48-0.04-4.1c-0.04-0.66-0.19-0.97-0.83-1.1c-0.16-0.04-0.48-0.06-0.7-0.06
	c-0.22,0-0.33-0.04-0.33-0.17c0-0.13,0.14-0.18,0.4-0.18c0.99,0,2.21,0.06,2.23,0.06c0.23,0,1.45-0.06,2.21-0.06
	c0.27,0,0.41,0.04,0.41,0.18c0,0.14-0.12,0.17-0.35,0.17c-0.21,0-0.33,0.02-0.56,0.06c-0.52,0.09-0.68,0.42-0.72,1.1
	c-0.04,0.62-0.04,1.16-0.04,4.1v2.07c0,2.15-0.21,4.43-1.84,5.82c-1.37,1.18-2.76,1.4-4.02,1.4c-1.02,0-2.88-0.06-4.29-1.34
	c-0.98-0.89-1.72-2.32-1.72-5.13V46.89z M99.2,45.15h0.06c0.35,0.37,2.5,2.79,4.6,4.88c2.01,1.99,4.49,4.53,5.71,5.69
	c0.21,0.21,0.44,0.42,0.66,0.42c0.17,0,0.25-0.17,0.25-0.6l0.21-12.2c0.02-1.08,0.17-1.49,0.72-1.65c0.23-0.06,0.39-0.06,0.58-0.06
	c0.23,0,0.35-0.06,0.35-0.18c0-0.15-0.19-0.18-0.45-0.18c-0.95,0-1.68,0.06-1.89,0.06c-0.41,0-1.34-0.06-2.34-0.06
	c-0.29,0-0.51,0.02-0.51,0.18c0,0.12,0.08,0.18,0.31,0.18c0.27,0,0.73,0,1.02,0.12c0.47,0.19,0.64,0.56,0.66,1.74l0.19,8.69h-0.1
	c-0.33-0.31-2.94-3.09-4.25-4.41c-2.82-2.81-5.76-5.96-6-6.21c-0.33-0.35-0.5-0.6-0.71-0.6c-0.19,0-0.25,0.27-0.25,0.66l-0.17,11.45
	c-0.02,1.68-0.1,2.25-0.6,2.4c-0.27,0.08-0.62,0.09-0.87,0.09c-0.19,0-0.31,0.04-0.31,0.16c0,0.17,0.17,0.19,0.42,0.19
	c1.01,0,1.91-0.06,2.09-0.06c0.36,0,1.14,0.06,2.4,0.06c0.27,0,0.45-0.04,0.45-0.19c0-0.12-0.11-0.16-0.33-0.16
	c-0.31,0-0.68-0.02-1.01-0.13c-0.39-0.14-0.64-0.64-0.68-2.15L99.2,45.15z M129.79,50.3c0,1.88,0,3.4-0.09,4.22
	c-0.06,0.56-0.17,0.89-0.56,0.97c-0.17,0.04-0.4,0.08-0.69,0.08c-0.23,0-0.31,0.06-0.31,0.16c0,0.13,0.14,0.19,0.39,0.19
	c0.78,0,1.99-0.06,2.43-0.06c0.53,0,1.74,0.06,3.02,0.06c0.21,0,0.37-0.06,0.37-0.19c0-0.1-0.09-0.16-0.31-0.16
	c-0.29,0-0.72-0.04-0.99-0.08c-0.58-0.08-0.71-0.43-0.77-0.95c-0.08-0.83-0.08-2.35-0.08-4.23v-3.4c0-2.94,0-3.48,0.04-4.1
	c0.04-0.68,0.19-1.01,0.72-1.1c0.23-0.04,0.39-0.06,0.58-0.06s0.31-0.04,0.31-0.19c0-0.12-0.15-0.16-0.41-0.16
	c-0.74,0-1.87,0.06-2.36,0.06c-0.56,0-1.78-0.06-2.52-0.06c-0.31,0-0.46,0.04-0.46,0.16c0,0.15,0.11,0.19,0.31,0.19
	c0.23,0,0.48,0.02,0.69,0.08c0.43,0.09,0.62,0.42,0.66,1.08c0.03,0.62,0.03,1.16,0.03,4.1V50.3z M153.63,55
	c0.37,0.91,0.48,1.18,0.74,1.18c0.27,0,0.39-0.31,0.89-1.43c0.42-0.97,1.34-3.08,2.57-5.9c1.04-2.38,1.57-3.42,2.32-5.24
	c0.52-1.24,0.81-1.57,1.07-1.74c0.35-0.23,0.75-0.23,0.95-0.23c0.19,0,0.31-0.04,0.31-0.17c0-0.13-0.15-0.18-0.41-0.18
	c-0.58,0-1.49,0.06-1.82,0.06c-0.25,0-1.06-0.06-2.03-0.06c-0.36,0-0.54,0.04-0.54,0.2c0,0.14,0.16,0.15,0.33,0.15
	c0.25,0,0.54,0.02,0.78,0.1c0.17,0.06,0.25,0.21,0.25,0.37c0,0.17-0.08,0.46-0.18,0.72c-0.46,1.28-2.98,7.5-3.81,9.63h-0.08
	l-3.33-8.78c-0.27-0.7-0.45-1.24-0.45-1.49c0-0.18,0.06-0.31,0.2-0.41c0.15-0.11,0.45-0.14,0.75-0.14c0.17,0,0.29-0.04,0.29-0.17
	c0-0.13-0.21-0.18-0.45-0.18c-0.97,0-1.89,0.06-2.38,0.06c-0.68,0-1.78-0.06-2.81-0.06c-0.29,0-0.5,0.02-0.5,0.18
	c0,0.12,0.06,0.17,0.24,0.17c0.15,0,0.46,0,0.75,0.08c0.7,0.19,1.03,0.41,1.47,1.47L153.63,55z M175.36,50.3
	c0,1.78,0,3.31-0.09,4.12c-0.08,0.56-0.18,0.99-0.56,1.06c-0.18,0.04-0.41,0.08-0.7,0.08c-0.23,0-0.31,0.06-0.31,0.16
	c0,0.13,0.14,0.19,0.39,0.19c0.39,0,0.89-0.04,1.34-0.04c0.46-0.02,0.89-0.02,1.1-0.02c0.58,0,1.18,0.02,2.01,0.06
	c0.83,0.02,1.89,0.06,3.35,0.06c0.74,0,0.91,0,1.04-0.5c0.1-0.39,0.25-1.71,0.25-2.15c0-0.19,0-0.35-0.15-0.35
	c-0.14,0-0.18,0.08-0.21,0.29c-0.14,0.79-0.37,1.2-0.87,1.43c-0.5,0.23-1.31,0.23-1.82,0.23c-1.97,0-2.28-0.29-2.32-1.62
	c-0.02-0.56,0-2.34,0-3v-1.53c0-0.12,0.02-0.19,0.12-0.19c0.47,0,2.38,0.02,2.75,0.06c0.72,0.08,0.99,0.36,1.08,0.75
	c0.06,0.25,0.06,0.5,0.08,0.7c0,0.1,0.04,0.18,0.18,0.18c0.17,0,0.17-0.22,0.17-0.37c0-0.13,0.06-0.91,0.08-1.29
	c0.08-0.98,0.15-1.3,0.15-1.41c0-0.12-0.06-0.15-0.14-0.15c-0.1,0-0.17,0.09-0.3,0.25c-0.18,0.19-0.47,0.25-0.93,0.29
	c-0.45,0.04-2.67,0.04-3.09,0.04c-0.12,0-0.14-0.08-0.14-0.21V42.5c0-0.14,0.04-0.19,0.14-0.19c0.39,0,2.42,0.04,2.75,0.08
	c0.96,0.12,1.16,0.35,1.29,0.69c0.1,0.23,0.12,0.56,0.12,0.7c0,0.17,0.04,0.27,0.17,0.27c0.14,0,0.18-0.12,0.2-0.22
	c0.04-0.23,0.08-1.08,0.09-1.28c0.06-0.88,0.15-1.12,0.15-1.25c0-0.1-0.02-0.18-0.12-0.18c-0.1,0-0.21,0.06-0.31,0.08
	c-0.16,0.04-0.47,0.08-0.83,0.12c-0.36,0.02-4.22,0.02-4.83,0.02c-0.27,0-0.72-0.02-1.22-0.04c-0.48,0-1.04-0.02-1.57-0.02
	c-0.29,0-0.42,0.04-0.42,0.18c0,0.14,0.12,0.17,0.33,0.17c0.27,0,0.6,0.02,0.75,0.06c0.64,0.13,0.79,0.44,0.83,1.1
	c0.04,0.62,0.04,1.16,0.04,4.1V50.3z M201.52,50.3c0,1.78,0,3.31-0.1,4.12c-0.08,0.56-0.17,0.99-0.56,1.06
	c-0.18,0.04-0.41,0.08-0.7,0.08c-0.23,0-0.31,0.06-0.31,0.16c0,0.13,0.14,0.19,0.39,0.19c0.78,0,1.99-0.06,2.36-0.06
	c0.29,0,1.72,0.06,2.84,0.06c0.25,0,0.38-0.06,0.38-0.19c0-0.1-0.08-0.16-0.23-0.16c-0.23,0-0.66-0.04-0.95-0.08
	c-0.58-0.08-0.69-0.51-0.76-1.06c-0.09-0.81-0.09-2.34-0.09-4.14V50c0-0.12,0.06-0.15,0.16-0.15l1.68,0.04
	c0.14,0,0.25,0.02,0.35,0.14c0.25,0.29,1.14,1.61,1.91,2.67c1.08,1.49,1.82,2.4,2.65,2.84c0.5,0.27,0.99,0.37,2.07,0.37h1.83
	c0.24,0,0.37-0.04,0.37-0.19c0-0.1-0.08-0.16-0.23-0.16s-0.33-0.02-0.54-0.06c-0.29-0.06-1.08-0.19-2.16-1.31
	c-1.14-1.2-2.48-2.92-4.2-5.09c1.95-1.59,2.55-2.9,2.55-4.33c0-1.3-0.77-2.28-1.32-2.65c-1.04-0.71-2.33-0.84-3.56-0.84
	c-0.6,0-2.07,0.06-2.72,0.06c-0.41,0-1.63-0.06-2.65-0.06c-0.29,0-0.42,0.04-0.42,0.18c0,0.14,0.12,0.17,0.33,0.17
	c0.27,0,0.6,0.02,0.75,0.06c0.64,0.13,0.79,0.44,0.83,1.1c0.04,0.62,0.04,1.16,0.04,4.1V50.3z M203.8,42.54
	c0-0.16,0.04-0.23,0.18-0.27c0.19-0.06,0.54-0.08,1.02-0.08c1.14,0,2.96,0.8,2.96,3.54c0,1.59-0.56,2.47-1.14,2.9
	c-0.35,0.25-0.6,0.33-1.37,0.33c-0.49,0-1.06-0.06-1.47-0.19c-0.14-0.06-0.18-0.13-0.18-0.35V42.54z M227.43,55.67
	c0.83,0.37,1.71,0.51,2.82,0.51c1.03,0,2.11-0.18,3.08-0.79c1.39-0.91,1.82-2.25,1.82-3.37c0-1.83-0.83-3.17-3.17-4.93l-0.54-0.41
	c-1.61-1.22-2.05-1.9-2.05-2.79c0-1.16,0.87-1.99,2.31-1.99c1.25,0,1.82,0.58,2.1,0.95c0.41,0.51,0.51,1.11,0.51,1.28
	c0,0.23,0.06,0.35,0.19,0.35c0.15,0,0.21-0.15,0.21-0.58c0-1.51,0.08-2.07,0.08-2.32c0-0.13-0.1-0.19-0.27-0.23
	c-0.5-0.14-1.32-0.33-2.57-0.33c-2.69,0-4.47,1.53-4.47,3.66c0,1.56,0.74,2.92,2.86,4.58l0.89,0.7c1.61,1.26,1.89,2.15,1.89,3.09
	c0,1.03-0.85,2.21-2.59,2.21c-1.2,0-2.34-0.52-2.76-1.96c-0.09-0.33-0.17-0.73-0.17-0.99c0-0.15-0.02-0.33-0.19-0.33
	c-0.16,0-0.21,0.21-0.23,0.51c-0.02,0.31-0.09,1.47-0.09,2.53C227.07,55.44,227.12,55.54,227.43,55.67 M252.9,50.3
	c0,1.88,0,3.4-0.1,4.22c-0.05,0.56-0.17,0.89-0.56,0.97c-0.18,0.04-0.41,0.08-0.7,0.08c-0.23,0-0.31,0.06-0.31,0.16
	c0,0.13,0.14,0.19,0.39,0.19c0.77,0,1.99-0.06,2.44-0.06c0.52,0,1.74,0.06,3.02,0.06c0.21,0,0.37-0.06,0.37-0.19
	c0-0.1-0.1-0.16-0.31-0.16c-0.29,0-0.72-0.04-0.98-0.08c-0.58-0.08-0.72-0.43-0.77-0.95c-0.08-0.83-0.08-2.35-0.08-4.23v-3.4
	c0-2.94,0-3.48,0.04-4.1c0.04-0.68,0.19-1.01,0.72-1.1c0.23-0.04,0.39-0.06,0.58-0.06c0.19,0,0.31-0.04,0.31-0.19
	c0-0.12-0.15-0.16-0.4-0.16c-0.74,0-1.88,0.06-2.36,0.06c-0.56,0-1.78-0.06-2.52-0.06c-0.31,0-0.46,0.04-0.46,0.16
	c0,0.15,0.12,0.19,0.31,0.19c0.23,0,0.48,0.02,0.7,0.08c0.42,0.09,0.62,0.42,0.66,1.08c0.04,0.62,0.04,1.16,0.04,4.1V50.3z
	 M275.44,50.3c0,1.78,0,3.31-0.1,4.12c-0.06,0.56-0.18,0.98-0.56,1.06c-0.17,0.04-0.41,0.08-0.69,0.08c-0.23,0-0.31,0.06-0.31,0.16
	c0,0.13,0.14,0.19,0.39,0.19c0.78,0,1.99-0.06,2.44-0.06c0.54,0,1.76,0.06,3.04,0.06c0.21,0,0.37-0.06,0.37-0.19
	c0-0.1-0.1-0.16-0.31-0.16c-0.29,0-0.72-0.04-0.98-0.08c-0.58-0.08-0.7-0.51-0.76-1.04c-0.1-0.83-0.1-2.36-0.1-4.14v-7.93l2.44,0.06
	c1.72,0.04,2.25,0.58,2.28,1.08l0.02,0.21c0.02,0.29,0.06,0.39,0.22,0.39c0.11,0,0.15-0.11,0.17-0.31c0-0.5,0.06-1.84,0.06-2.24
	c0-0.29-0.02-0.4-0.15-0.4c-0.08,0-0.23,0.03-0.52,0.09c-0.29,0.04-0.71,0.1-1.34,0.1h-7.66c-0.63,0-1.37-0.04-1.93-0.1
	c-0.48-0.04-0.68-0.23-0.83-0.23c-0.12,0-0.18,0.12-0.24,0.37c-0.03,0.15-0.41,1.92-0.41,2.22c0,0.21,0.04,0.31,0.17,0.31
	c0.12,0,0.17-0.08,0.22-0.24c0.04-0.15,0.13-0.39,0.33-0.68c0.29-0.42,0.75-0.52,1.87-0.56l2.89-0.08V50.3z M300.08,52.49
	c0,0.31,0,1.12-0.06,1.93c-0.04,0.56-0.21,0.99-0.6,1.06c-0.17,0.04-0.41,0.08-0.68,0.08c-0.21,0-0.3,0.06-0.3,0.16
	c0,0.15,0.15,0.19,0.42,0.19c0.72,0,1.94-0.06,2.42-0.06c0.52,0,1.74,0.06,2.96,0.06c0.25,0,0.4-0.06,0.4-0.19
	c0-0.1-0.09-0.16-0.31-0.16c-0.27,0-0.69-0.04-0.96-0.08c-0.58-0.08-0.76-0.51-0.79-1.06c-0.06-0.81-0.06-1.63-0.06-1.93V50.9
	c0-0.64,0-1.24,0.29-1.94c0.35-0.83,3.06-5.37,3.69-6.15c0.43-0.52,0.64-0.75,1.04-0.95c0.29-0.15,0.66-0.23,0.85-0.23
	c0.21,0,0.37-0.06,0.37-0.19c0-0.11-0.13-0.16-0.35-0.16c-0.37,0-1.64,0.06-2.07,0.06c-0.56,0-1.18-0.06-1.82-0.06
	c-0.23,0-0.33,0.04-0.33,0.17c0,0.12,0.18,0.16,0.35,0.2c0.33,0.08,0.41,0.29,0.41,0.48c0,0.25-0.08,0.58-0.27,1
	c-0.27,0.6-2.71,4.85-2.91,5.32c-0.3-0.54-3.01-5.21-3.28-5.78c-0.14-0.27-0.23-0.51-0.23-0.66c0-0.16,0.09-0.31,0.27-0.35
	c0.29-0.08,0.43-0.1,0.43-0.22c0-0.11-0.1-0.17-0.29-0.17c-0.87,0-1.66,0.06-2.07,0.06c-0.64,0-2.09-0.06-2.44-0.06
	c-0.23,0-0.36,0.06-0.36,0.17c0,0.14,0.13,0.18,0.29,0.18c0.23,0,0.56,0.12,0.81,0.25c0.37,0.21,0.85,0.69,1.34,1.41
	c0.68,1.01,3.27,5.26,3.41,5.57c0.25,0.56,0.45,0.99,0.45,2.03V52.49z M71.32,31.2c-0.8,2.03-1.7,3.58-3.75,3.82
	c-0.36,0.04-0.98,0.08-1.29,0.08c-0.23,0-0.4,0.08-0.4,0.24c0,0.24,0.27,0.33,0.85,0.33c2.1,0,4.56-0.12,5.05-0.12
	c0.49,0,2.42,0.12,3.49,0.12c0.41,0,0.67-0.08,0.67-0.33c0-0.16-0.14-0.24-0.45-0.24h-0.45c-0.76,0-1.7-0.36-1.7-1.18
	c0-0.73,0.22-1.71,0.63-2.72l2.68-7.19c0.09-0.21,0.22-0.33,0.45-0.33h9.62c0.23,0,0.31,0.08,0.4,0.25l4.16,10
	c0.27,0.65,0,1.01-0.27,1.1c-0.18,0.04-0.31,0.12-0.31,0.29c0,0.24,0.49,0.24,1.34,0.28c3.09,0.08,6.35,0.08,7.02,0.08
	c0.49,0,0.9-0.08,0.9-0.33c0-0.2-0.18-0.24-0.44-0.24c-0.45,0-1.12-0.04-1.79-0.24c-0.94-0.24-2.24-0.9-3.85-4.51
	c-2.73-6.18-9.75-22.97-10.42-24.51c-0.54-1.26-0.72-1.47-0.99-1.47c-0.27,0-0.45,0.25-0.98,1.59L71.32,31.2z M77.58,22.22
	c-0.14,0-0.22-0.08-0.14-0.29l3.94-10.98c0.23-0.61,0.45-0.61,0.67,0l4.25,10.98c0.04,0.16,0.04,0.29-0.18,0.29H77.58z
	 M104.27,10.67c1.43,1.46,6.49,6.58,11.67,11.67c4.74,4.63,11.18,10.61,11.68,11.02c2.37,2.15,2.9,2.6,3.26,2.6
	c0.31,0,0.4-0.2,0.4-2.88l0.09-23.82c0-2.44,0.18-3.34,1.65-3.62c0.53-0.12,0.85-0.12,1.07-0.12c0.31,0,0.49-0.12,0.49-0.29
	c0-0.24-0.31-0.29-0.8-0.29c-1.83,0-3.31,0.12-3.8,0.12c-0.49,0-2.64-0.12-4.65-0.12c-0.54,0-0.9,0.04-0.9,0.29
	c0,0.16,0.04,0.29,0.36,0.29c0.36,0,1.39,0.04,2.19,0.2c1.39,0.32,1.7,1.22,1.74,3.86l0.49,20.65c-1.43-1.34-6.31-6.3-10.73-10.61
	c-6.89-6.71-13.55-13.25-14.22-13.94c-0.45-0.41-1.21-1.3-1.57-1.3c-0.35,0-0.49,0.45-0.49,2.04l-0.04,23.29
	c0,3.7-0.22,4.88-1.34,5.16c-0.67,0.2-1.47,0.24-1.83,0.24c-0.22,0-0.36,0.08-0.36,0.25c0,0.28,0.27,0.33,0.71,0.33
	c2.01,0,3.89-0.12,4.29-0.12c0.4,0,2.19,0.12,4.74,0.12c0.54,0,0.81-0.08,0.81-0.33c0-0.16-0.13-0.25-0.35-0.25
	c-0.41,0-1.39-0.04-2.24-0.24c-1.21-0.33-1.66-1.38-1.75-4.72L104.27,10.67z M138.62,23.89c0,3.9,0,7.11-0.22,8.82
	c-0.17,1.18-0.39,2.07-1.26,2.23c-0.39,0.08-0.91,0.16-1.31,0.16c-0.26,0-0.35,0.12-0.35,0.24c0,0.24,0.22,0.33,0.7,0.33
	c0.65,0,1.65-0.08,2.52-0.08c0.91-0.04,1.65-0.04,1.74-0.04c0.22,0,1.7,0.12,3.61,0.24c1.87,0.12,4.17,0.24,6.05,0.24
	c7.4,0,11.31-2.85,13.18-4.67c2.43-2.4,4.7-6.34,4.7-11.46c0-4.84-2.04-8.21-4.22-10.33c-5.18-5-13.14-4.64-17.44-4.64
	c-2.61,0-5.35,0.12-5.87,0.12c-0.22,0-2.96-0.12-4.92-0.12c-0.48,0-0.7,0.08-0.7,0.33c0,0.16,0.18,0.24,0.35,0.24
	c0.39,0,1.13,0.04,1.48,0.12c1.44,0.29,1.78,0.94,1.87,2.32c0.08,1.3,0.08,2.44,0.08,8.78V23.89z M142.27,16.08
	c0-3.13,0-7.28,0.04-8.66c0-0.45,0.13-0.65,0.52-0.81c0.35-0.16,1.96-0.29,2.83-0.29c5.18,0,10.13,0.57,14.22,4.6
	c1.79,1.75,4.18,5.08,4.18,10.24c0,3.74-1.22,7.64-3.48,9.71c-2.57,2.4-6.31,3.78-10.35,3.78c-5.13,0-6.83-0.86-7.4-1.63
	c-0.35-0.45-0.43-2.08-0.48-3.09c-0.04-0.77-0.08-4.51-0.08-8.82V16.08z M172.6,23.89c0,3.9,0,7.11-0.22,8.82
	c-0.18,1.18-0.4,2.07-1.3,2.23c-0.4,0.08-0.94,0.16-1.34,0.16c-0.27,0-0.36,0.12-0.36,0.24c0,0.24,0.22,0.32,0.72,0.32
	c0.68,0,1.7-0.08,2.59-0.08c0.94-0.04,1.7-0.04,1.79-0.04c0.67,0,1.74,0.04,3.49,0.12c1.75,0.04,4.21,0.12,7.56,0.12
	c1.74,0,2.1,0,2.42-1.06c0.22-0.85,0.58-3.62,0.58-3.95c0-0.28,0-0.61-0.27-0.61c-0.22,0-0.31,0.16-0.4,0.61
	c-0.31,1.66-0.85,2.48-2.01,2.93c-1.16,0.45-3.13,0.45-4.29,0.45c-4.39,0-5.05-0.53-5.19-3.33c-0.04-0.85,0-5.57,0-6.95v-3.58
	c0-0.16,0.09-0.28,0.31-0.28c0.76,0,5.19,0.08,6.39,0.2c1.74,0.16,2.15,0.85,2.32,1.42c0.18,0.53,0.18,0.94,0.18,1.34
	c0,0.2,0.09,0.37,0.31,0.37c0.31,0,0.31-0.45,0.31-0.77c0-0.29,0.09-1.79,0.18-2.6c0.14-1.34,0.36-2.03,0.36-2.27
	c0-0.24-0.09-0.33-0.23-0.33c-0.18,0-0.36,0.2-0.67,0.53c-0.4,0.41-1.03,0.49-2.1,0.57c-1.03,0.08-6.53,0.08-7.11,0.08
	c-0.23,0-0.27-0.12-0.27-0.41V6.93c0-0.29,0.09-0.41,0.27-0.41c0.49,0,5.37,0.04,6.13,0.13c2.41,0.24,2.86,0.73,3.17,1.38
	c0.22,0.49,0.27,1.18,0.27,1.46c0,0.33,0.09,0.53,0.36,0.53c0.18,0,0.27-0.24,0.31-0.45c0.09-0.49,0.18-2.28,0.22-2.68
	c0.14-1.14,0.36-1.62,0.36-1.91c0-0.2-0.05-0.36-0.18-0.36c-0.22,0-0.4,0.16-0.63,0.2c-0.35,0.08-1.07,0.16-1.92,0.2
	c-1.03,0.04-9.93,0.04-10.24,0.04l-1.83-0.08c-0.99-0.04-2.19-0.04-3.22-0.04c-0.49,0-0.71,0.08-0.71,0.33
	c0,0.16,0.18,0.24,0.36,0.24c0.4,0,1.16,0.04,1.52,0.12c1.48,0.28,1.83,0.93,1.92,2.32c0.09,1.3,0.09,2.44,0.09,8.78V23.89z
	 M221.6,35.15c-0.63-0.29-0.67-0.45-0.67-1.55c0-2.03,0.18-3.66,0.22-4.31c0.05-0.45,0.14-0.65,0.36-0.65
	c0.26,0,0.31,0.13,0.31,0.45c0,0.36,0,0.94,0.13,1.5c0.67,3.01,3.63,4.15,6.62,4.15c4.29,0,6.4-2.81,6.4-5.41
	c0-2.81-1.3-4.43-5.15-7.32l-2.01-1.5c-4.74-3.53-5.81-6.06-5.81-8.82c0-4.35,3.58-7.32,9.26-7.32c1.74,0,3.04,0.16,4.16,0.41
	c0.85,0.16,1.21,0.2,1.56,0.2c0.36,0,0.45,0.08,0.45,0.29c0,0.2-0.18,1.54-0.18,4.31c0,0.65-0.09,0.94-0.31,0.94
	c-0.27,0-0.31-0.2-0.36-0.53c-0.05-0.49-0.31-1.58-0.58-2.03c-0.27-0.45-1.48-2.15-5.59-2.15c-3.08,0-5.5,1.75-5.5,4.72
	c0,2.32,1.16,3.78,5.46,6.83l1.25,0.89c5.28,3.78,6.53,6.3,6.53,9.56c0,1.66-0.71,4.76-3.8,6.75c-1.92,1.22-4.34,1.71-6.75,1.71
	C225.49,36.24,223.43,35.96,221.6,35.15 M257.44,4.37c-12.01,0-17.14,9.31-17.14,15.9c0,7.32,4.96,15.98,16.88,15.98
	c10.49,0,17.36-7.52,17.36-16.63C274.54,10.14,267.22,4.37,257.44,4.37 M258.35,34.7c-7.83,0-13.92-6.1-13.92-15.57
	c0-8.9,5.44-13.38,12.7-13.38c6.88,0,13.22,5.24,13.22,15C270.36,32.58,262.27,34.7,258.35,34.7 M280.69,10.67
	c1.43,1.46,6.48,6.58,11.67,11.67c4.74,4.63,11.18,10.61,11.67,11.02c2.37,2.15,2.91,2.6,3.26,2.6c0.31,0,0.4-0.2,0.4-2.88
	l0.09-23.82c0-2.44,0.18-3.34,1.66-3.62c0.54-0.12,0.85-0.12,1.07-0.12c0.31,0,0.49-0.12,0.49-0.29c0-0.24-0.31-0.29-0.8-0.29
	c-1.84,0-3.31,0.12-3.8,0.12c-0.49,0-2.64-0.12-4.65-0.12c-0.53,0-0.9,0.04-0.9,0.29c0,0.16,0.04,0.29,0.36,0.29
	c0.36,0,1.39,0.04,2.19,0.2c1.38,0.32,1.7,1.22,1.74,3.86l0.49,20.65c-1.43-1.34-6.3-6.3-10.73-10.61
	c-6.89-6.71-13.55-13.25-14.22-13.94c-0.45-0.41-1.21-1.3-1.57-1.3c-0.36,0-0.5,0.45-0.5,2.04l-0.04,23.29
	c0,3.7-0.22,4.88-1.34,5.16c-0.67,0.2-1.48,0.24-1.83,0.24c-0.22,0-0.35,0.08-0.35,0.25c0,0.28,0.27,0.33,0.71,0.33
	c2.02,0,3.89-0.12,4.3-0.12c0.41,0,2.19,0.12,4.74,0.12c0.53,0,0.8-0.08,0.8-0.33c0-0.16-0.14-0.25-0.36-0.25
	c-0.41,0-1.39-0.04-2.24-0.24c-1.21-0.33-1.66-1.38-1.74-4.72L280.69,10.67z M223.92,35.1c0.23,0,0.4,0.12,0.4,0.25
	c0,0.24-0.26,0.32-1.07,0.32h-3.17c-2.51,0-3.62-0.2-4.78-0.77c-1.92-0.94-3.49-2.93-6.03-5.97c-1.88-2.24-3.98-4.96-4.88-6.02
	c-0.14-0.13-0.4-0.23-0.64-0.26l-4.45-0.06c-0.22,0-0.31,0.12-0.31,0.33v0.98c0,3.9,0,7.11,0.23,8.82c0.13,1.18,0.4,2.07,1.74,2.23
	c0.63,0.08,1.61,0.16,2.01,0.16c0.27,0,0.36,0.12,0.36,0.25c0,0.2-0.22,0.32-0.71,0.32c-2.46,0-5.28-0.12-5.5-0.12
	c-0.04,0-2.86,0.12-4.2,0.12c-0.49,0-0.72-0.08-0.72-0.32c0-0.12,0.09-0.25,0.36-0.25c0.4,0,0.94-0.08,1.34-0.16
	c0.89-0.16,1.12-1.06,1.29-2.23c0.23-1.71,0.23-4.92,0.23-8.82v-7.16c0-6.34,0-7.48-0.09-8.78c-0.09-1.38-0.45-2.03-1.92-2.32
	c-0.36-0.08-1.12-0.12-1.52-0.12c-0.18,0-0.36-0.08-0.36-0.24c0-0.25,0.23-0.33,0.71-0.33c2.02,0,4.83,0.12,5.06,0.12
	c0.49,0,3.89-0.12,5.28-0.12c2.81,0,5.81,0.24,8.18,1.79c1.12,0.73,3.01,2.72,3.08,5.53c0.11,4.01-1.63,7.25-5.41,9.39
	c0,0-0.23,0.14-0.71,0.33c3.54,4.12,6.49,7.62,9.02,10.08c2.41,2.32,4.34,2.76,5.46,2.93C223.03,35.1,223.66,35.1,223.92,35.1
	 M198.98,20.26c0,0.2,0.09,0.37,0.31,0.49c0.67,0.36,2.73,0.65,4.7,0.65c1.07,0,2.32-0.12,3.35-0.77c1.56-0.97,2.73-3.17,2.73-6.26
	c0-5.08-2.95-8.13-7.73-8.13c-1.34,0-2.55,0.12-3,0.24c-0.23,0.08-0.36,0.24-0.36,0.49V20.26"/>
<path stroke="#EBB332" stroke-width="1.2598" d="M61.8,31c0,16.62-13.47,30.09-30.09,30.09C15.1,61.09,1.63,47.62,1.63,31
	c0-16.62,13.47-30.09,30.08-30.09C48.33,0.91,61.8,14.38,61.8,31z"/>
<path fill="#EBB332" d="M17.06,49.13h29.87v-3.9H17.06V49.13z M32.01,9.51l-14.95,7.47h29.87L32.01,9.51z M17.06,23.03h1.23v16.2
	h-1.23v4.47h29.87v-4.47H45.7v-16.2h1.23v-4.46H17.06V23.03z M39.56,23.03h1.23v-1.3h1v1.3h1.27v16.2H41.8v1.3h-1v-1.3h-1.23V23.03z
	 M27.1,23.03h1.27v-1.3h7.29v1.3h1.26v16.2h-1.26v1.3h-1.11v-8.15h-5.06v8.15h-1.12v-1.3H27.1V23.03z M20.97,23.03h1.26v-1.3h0.97
	v1.3h1.26v16.2H23.2v1.3h-0.97v-1.3h-1.26V23.03z"/>
</svg>
