<?xml version="1.0" encoding="UTF-8"?>
<svg width="322px" height="96px" viewBox="0 0 322 96" version="1.1" xmlns="http://www.w3.org/2000/svg" xmlns:xlink="http://www.w3.org/1999/xlink">
  <g stroke="none" stroke-width="1" fill="none" fill-rule="evenodd">
    <g transform="translate(-117.000000, -133.000000)" fill="#241F21">
      <g transform="translate(117.000000, 83.000000)">
        <path d="M0.593666667,108.039148 L0,108.039148 L0,106.823407 L320.269444,106.823407 L320.269444,107.112537 L320.863111,107.112537 L320.863111,108.328278 L0.593666667,108.328278 L0.593666667,108.039148 Z M175.795124,94.0383492 L178.208333,93.8366481 C180.83,93.6368333 181.299444,91.5520185 181.299444,84.2912778 L181.299444,51.1509074 L182.847407,50.5442407 C188.427778,57.6701667 208.257593,78.241463 215.585741,85.4347963 L215.585741,62.3766481 C215.585741,54.9810926 215.585741,53.1659074 211.887963,52.8312778 L209.468519,52.6290556 L209.468519,51.1509074 L223.987593,51.1509074 L223.987593,52.6290556 L221.568148,52.8312778 C219.148704,53.0310926 218.676852,55.1159074 218.676852,62.3766481 L218.676852,95.5170185 L217.198704,96.1236852 C215.718148,94.5781296 211.553333,90.1412778 204.562222,82.9479444 L184.392963,61.6375741 L184.392963,84.2912778 C184.392963,91.6868333 184.392963,93.4996111 187.888519,93.8366481 L190.307963,94.0388704 L190.307963,95.5170185 L175.788889,95.5170185 L159.124093,95.516537 L159.124093,94.0383889 L162.150204,93.4991296 C163.358722,93.2993148 164.235019,92.9622778 164.235019,92.2232037 C164.235019,91.7537593 163.965389,91.2819074 163.830574,90.812463 L159.124093,78.1061667 C156.637241,77.6367222 154.150389,77.4345 151.663537,77.4345 C149.309093,77.4345 146.957056,77.7041296 144.605019,78.1061667 L141.17687,87.4517222 C140.370389,89.601537 139.83113,91.4167222 139.83113,91.9535741 C139.83113,93.2319074 140.705019,93.4341296 141.444093,93.4991296 L145.478907,94.0383889 L145.478907,95.516537 L131.36187,95.516537 L131.36187,94.0383889 L132.637796,93.8361667 C135.194463,93.4341296 135.529093,92.6926481 137.142056,88.7950556 L151.124278,54.7783889 C151.663537,53.4350556 152.200389,52.0893148 152.739648,50.8133889 L154.689648,50.1417222 L169.680574,89.0646852 C170.68687,91.7537593 171.360944,93.2993148 173.108722,93.6363519 L175.795124,94.0383492 Z M1.0658141e-14,94.0388704 L1.68037037,93.6368333 C2.68907407,93.4346111 3.36074074,93.1649815 3.76518519,92.8279444 C4.43685185,92.1562778 4.9062963,87.8542407 5.31074074,81.7370185 L6.38685185,64.7960926 C6.65648148,60.2244259 7.12592593,52.9660926 7.12592593,51.1509074 L8.94111111,50.5442407 C10.9585185,54.0422037 26.2840741,83.0129444 28.3688889,86.7107222 C30.5187037,83.2825741 45.577037,54.5790556 46.8553704,51.1509074 L48.6031481,50.5442407 C48.6031481,51.0835 49.0725926,58.611463 49.5444444,67.4851667 L50.1487037,79.1153519 C50.4183333,84.8281296 50.8877778,91.3497963 51.427037,92.3585 C51.7616667,93.0301667 52.7703704,93.4346111 53.9812963,93.6368333 L55.9987037,94.0388704 L55.9987037,95.5170185 L38.7881481,95.5170185 L38.7881481,94.0388704 L41.4098148,93.6368333 C44.3011111,93.2997963 44.5683333,92.2236852 44.5683333,89.1325741 C44.5683333,81.6696111 43.4272222,67.5525741 43.4272222,63.250537 L43.2924074,63.250537 C42.1488889,66.2092407 35.2925926,79.3849815 28.6385185,92.4933148 C28.3014815,93.1649815 28.0318519,93.971463 27.6972222,94.6431296 L25.8146296,95.5170185 C24.3340741,92.4259074 15.7974074,76.0218333 11.1583333,67.150537 C10.4866667,65.8722037 9.88240741,64.5938704 9.34314815,63.250537 L9.21074074,63.250537 C9.00851852,67.0831296 8.06722222,86.106463 8.06722222,88.1912778 C8.06722222,92.1562778 8.06722222,93.2997963 11.2257407,93.6368333 L13.9148148,94.0388704 L13.9148148,95.5170185 L1.0658141e-14,95.5170185 L1.0658141e-14,94.0388704 Z M84.1627222,80.7451667 C82.4149444,82.0235 78.9193889,83.5690556 73.5412407,83.5690556 C65.878463,83.5690556 57.8786481,79.0647963 57.8786481,69.3846111 C57.8786481,56.4760926 67.0219815,50.965537 75.1542037,50.965537 C78.382537,50.965537 81.4062407,51.7046111 82.9517963,52.915537 C82.9517963,54.2588704 82.2127222,56.2762778 81.2040185,57.8218333 L80.8019815,57.8218333 C79.7932778,56.4110926 77.3064259,54.1240556 72.9369815,54.1240556 C68.0956852,54.1240556 64.0632778,57.9566481 64.0632778,65.5520185 C64.0632778,76.1735 69.5088333,81.2170185 77.1716111,81.2170185 C79.8606852,81.2170185 82.6845741,79.6690556 83.6258704,79.1322037 L84.1627222,80.7451667 Z M98.4815,92.3580185 C101.035759,92.827463 103.590019,93.2993148 106.144278,93.2993148 C118.378722,93.2993148 125.170019,86.5080185 125.170019,73.3996852 C125.170019,59.2826481 117.504833,53.3676481 105.540019,53.3676481 C103.187981,53.3676481 100.833537,53.7046852 98.4815,54.0417222 L98.4815,92.3580185 Z M87.1883519,94.0383889 L89.6077963,93.8361667 C92.229463,93.5689444 92.229463,93.2319074 92.229463,85.0298704 L92.229463,61.6370926 C92.229463,53.4350556 92.229463,53.0980185 89.6077963,52.8307963 L87.1883519,52.6285741 L87.1883519,51.1504259 L109.237796,51.1504259 C123.624463,51.1504259 132.228537,58.6783889 132.228537,71.7193148 C132.228537,89.1995 119.255019,95.516537 105.202981,95.516537 L87.1883519,95.516537 L87.1883519,94.0383889 Z M145.478907,75.5519074 C147.496315,75.4170926 149.578722,75.2148704 151.59613,75.2148704 C153.745944,75.2148704 155.898167,75.2846852 158.050389,75.5519074 L151.863352,59.2826481 L145.478907,75.5519074 Z M229.096352,94.0388704 L231.515796,93.8366481 C234.137463,93.5694259 234.137463,93.2323889 234.137463,85.0303519 L234.137463,61.6375741 C234.137463,53.435537 234.137463,53.0985 231.515796,52.8312778 L229.096352,52.6290556 L229.096352,51.1509074 L245.430611,51.1509074 L245.430611,52.6290556 L243.011167,52.8312778 C240.3895,53.0985 240.3895,53.435537 240.3895,61.6375741 L240.3895,85.0303519 C240.3895,93.2323889 240.3895,93.5694259 243.011167,93.8366481 L245.430611,94.0388704 L245.430611,95.5170185 L229.096352,95.5170185 L229.096352,94.0388704 Z M251.616204,94.0388704 L254.035648,93.8366481 C256.657315,93.5694259 256.657315,93.2323889 256.657315,85.0303519 L256.657315,61.6375741 C256.657315,53.435537 256.657315,53.0985 254.035648,52.8312778 L251.616204,52.6290556 L251.616204,51.1509074 L280.589352,51.1509074 C280.858981,52.6290556 281.328426,55.1833148 281.328426,58.2768333 C281.328426,59.8223889 281.193611,60.3592407 281.193611,60.9659074 L279.580648,61.2331296 C278.1025,54.0422037 277.967685,53.0310926 268.487315,53.0310926 L262.909352,53.0310926 L262.909352,71.5175741 L268.891759,71.5175741 C274.135093,71.5175741 275.346019,71.4525741 275.750463,68.6960926 L276.085093,66.4090556 L277.83287,66.4090556 L277.83287,78.5110926 L276.085093,78.5110926 L275.750463,76.2240556 C275.346019,73.4675741 274.135093,73.4025741 268.891759,73.4025741 L262.909352,73.4025741 L262.909352,92.7629444 C265.328796,93.2323889 267.815648,93.6368333 270.2375,93.6368333 C280.923981,93.6368333 281.598056,89.6020185 282.941389,84.0890556 L284.621759,84.3586852 C284.421944,88.6607222 283.548056,91.8216481 282.404537,95.5170185 L251.616204,95.5170185 L251.616204,94.0388704 Z M288.990963,94.0388704 L291.412815,93.8366481 C294.034481,93.5694259 294.034481,93.2323889 294.034481,85.0303519 L294.034481,61.6375741 C294.034481,53.435537 294.034481,53.0985 291.412815,52.8312778 L288.990963,52.6290556 L288.990963,51.1509074 L305.325222,51.1509074 L305.325222,52.6290556 L302.905778,52.8312778 C300.284111,53.0985 300.284111,53.435537 300.284111,61.6375741 L300.284111,92.8279444 C302.703556,93.2323889 305.192815,93.6368333 307.612259,93.6368333 C317.562074,93.6368333 318.233741,89.6020185 319.579481,84.0890556 L321.259852,84.3586852 C321.05763,88.6607222 320.183741,91.8216481 319.040222,95.5170185 L288.990963,95.5170185 L288.990963,94.0388704 Z M25.6644074,136.957167 C25.4188519,139.537907 24.9686667,141.461426 23.984037,143.919389 C22.8381111,144.451426 19.5207037,145.476981 15.5484815,145.476981 C7.72681481,145.476981 0.355333333,141.832167 0.355333333,131.429759 C0.355333333,120.495315 9.15922222,117.218833 15.6303333,117.218833 C19.8071852,117.218833 22.919963,118.241981 23.984037,118.896796 C24.3523704,120.536241 24.6388519,122.909944 24.6388519,124.958648 L23.5338519,125.204204 C23.1245926,123.564759 22.5925556,118.569389 15.5894074,118.569389 C8.87274074,118.569389 4.65496296,122.991796 4.65496296,130.649759 C4.65496296,137.652907 8.0132963,144.124019 15.4666296,144.124019 C22.2651481,144.124019 23.2882963,139.988093 24.557,136.711611 L25.6644074,136.957167 Z M67.1909815,144.124259 C74.1532037,144.124259 76.7748704,138.144259 76.7748704,132.166667 C76.7748704,124.426852 72.9230185,118.56963 66.4952407,118.56963 C60.351537,118.56963 56.7476481,123.690185 56.7476481,130.772778 C56.7476481,139.128889 61.0063519,144.124259 67.1909815,144.124259 Z M52.4480185,131.552778 C52.4480185,122.705556 59.287463,117.219074 67.1909815,117.219074 C74.7261667,117.219074 81.0745,122.009815 81.0745,131.102593 C81.0745,140.111111 74.521537,145.477222 66.4133889,145.477222 C58.3052407,145.477222 52.4480185,140.397593 52.4480185,131.552778 Z M109.126815,143.960796 L110.600148,143.835611 C112.198667,143.671907 112.198667,143.467278 112.198667,138.471907 L112.198667,124.220056 C112.198667,119.224685 112.198667,119.020056 110.600148,118.856352 L109.126815,118.733574 L109.126815,117.833204 L119.079037,117.833204 L119.079037,118.733574 L117.603296,118.856352 C116.007185,119.020056 116.007185,119.224685 116.007185,124.220056 L116.007185,143.221722 C117.480519,143.467278 118.997185,143.712833 120.470519,143.712833 C126.53237,143.712833 126.94163,141.257278 127.760148,137.898944 L128.785704,138.062648 C128.660519,140.684315 128.128481,142.607833 127.432741,144.861167 L109.126815,144.861167 L109.126815,143.960796 Z M154.134019,143.960796 L155.607352,143.835611 C157.20587,143.671907 157.20587,143.467278 157.20587,138.471907 L157.20587,124.220056 C157.20587,119.224685 157.20587,119.020056 155.607352,118.856352 L154.134019,118.733574 L154.134019,117.833204 L164.086241,117.833204 L164.086241,118.733574 L162.6105,118.856352 C161.014389,119.020056 161.014389,119.224685 161.014389,124.220056 L161.014389,143.221722 C162.487722,143.467278 164.004389,143.712833 165.477722,143.712833 C171.539574,143.712833 171.948833,141.257278 172.767352,137.898944 L173.7905,138.062648 C173.667722,140.684315 173.135685,142.607833 172.439944,144.861167 L154.134019,144.861167 L154.134019,143.960796 Z M199.142426,143.960796 L200.615759,143.835611 C202.214278,143.671907 202.214278,143.467278 202.214278,138.471907 L202.214278,124.220056 C202.214278,119.224685 202.214278,119.020056 200.615759,118.856352 L199.142426,118.733574 L199.142426,117.833204 L216.793537,117.833204 C216.957241,118.733574 217.243722,120.288759 217.243722,122.173759 C217.243722,123.115056 217.16187,123.442463 217.16187,123.810796 L216.177241,123.9745 C215.27687,119.593019 215.195019,118.97913 209.422056,118.97913 L206.022796,118.97913 L206.022796,130.240981 L209.667611,130.240981 C212.862241,130.240981 213.598907,130.200056 213.844463,128.519685 L214.049093,127.128204 L215.113167,127.128204 L215.113167,134.499685 L214.049093,134.499685 L213.844463,133.108204 C213.598907,131.427833 212.862241,131.386907 209.667611,131.386907 L206.022796,131.386907 L206.022796,143.180796 C207.49613,143.467278 209.012796,143.712833 210.48613,143.712833 C216.998167,143.712833 217.407426,141.257278 218.225944,137.898944 L219.249093,138.062648 C219.126315,140.684315 218.594278,142.607833 217.898537,144.861167 L199.142426,144.861167 L199.142426,143.960796 Z M272.08037,143.427074 C270.688889,143.961519 266.220741,145.475778 261.841667,145.475778 C253.610741,145.475778 246.239259,141.871889 246.239259,131.428556 C246.239259,120.494111 255.043148,117.21763 261.511852,117.21763 C265.691111,117.21763 268.803889,118.240778 269.867963,118.898 C270.236296,120.535037 270.522778,122.911148 270.522778,124.957444 L269.417778,125.203 C269.008519,123.565963 268.476481,118.568185 261.473333,118.568185 C254.756667,118.568185 250.538889,122.993 250.538889,130.650963 C250.538889,137.651704 254.101852,144.122815 262.128148,144.122815 C263.603889,144.122815 265.486481,143.961519 266.918889,143.590778 L266.918889,142.076519 C266.918889,137.078741 266.918889,136.874111 264.054074,136.710407 L262.578333,136.590037 L262.578333,135.687259 L272.980741,135.687259 L272.980741,136.590037 L271.507407,136.710407 C270.727407,136.874111 270.727407,137.078741 270.727407,141.050963 C270.727407,142.281148 270.727407,142.526704 271.38463,142.526704 L271.793889,142.526704 L272.08037,143.427074 Z M299.765556,143.960796 L301.236481,143.835611 C302.835,143.671907 302.835,143.467278 302.835,138.471907 L302.835,124.220056 C302.835,119.224685 302.835,119.020056 301.236481,118.856352 L299.765556,118.733574 L299.765556,117.833204 L317.414259,117.833204 C317.577963,118.733574 317.866852,120.288759 317.866852,122.173759 C317.866852,123.115056 317.782593,123.442463 317.782593,123.810796 L316.797963,123.9745 C315.897593,119.593019 315.818148,118.97913 310.045185,118.97913 L306.643519,118.97913 L306.643519,130.240981 L310.288333,130.240981 C313.482963,130.240981 314.222037,130.200056 314.465185,128.519685 L314.669815,127.128204 L315.738704,127.128204 L315.738704,134.499685 L314.669815,134.499685 L314.465185,133.108204 C314.222037,131.427833 313.482963,131.386907 310.288333,131.386907 L306.643519,131.386907 L306.643519,143.180796 C308.119259,143.467278 309.635926,143.712833 311.109259,143.712833 C317.621296,143.712833 318.030556,141.257278 318.849074,137.898944 L319.87463,138.062648 C319.749444,140.684315 319.215,142.607833 318.521667,144.861167 L299.765556,144.861167 L299.765556,143.960796 Z M61.7543333,88.5230185 L82.9948889,88.5230185 L82.0535926,90.7619074 L62.5367407,90.7619074 L61.7543333,88.5230185 Z" ></path>
      </g>
    </g>
  </g>
</svg>