<svg width="269" height="61" fill="none" xmlns="http://www.w3.org/2000/svg"><path d="M47.62 53.265c2.551 0 6.23-3.721 7.276-4.809-.377-.125-.878-.334-1.547-.501 4.348-2.258 6.02-6.23 6.02-6.23s-.627.167-1.588.377c3.26-2.342 5.184-5.896 5.184-5.896s-.962.293-2.258.586c2.676-1.547 4.557-3.847 5.477-5.143 5.394-1.547 7.61-4.85 7.61-4.85-15.553 2.258-12.752-6.02-23.33-9.95-3.554-1.297-7.986-3.345-10.578-9.91-6.731-1.839-10.243 2.008-11.874 7.82-1.129-1.255-2.926-1.715-3.22-4.39-2.633 3.093-3.595 6.981-3.887 8.486-3.805 1.547-5.227 3.136-5.77 4.181-5.393 3.136-11.707 3.68-11.707 8.111 0 1.924 1.38 3.93 2.133 4.85 0 4.349 2.843 6.063 2.843 6.063-.377.752-.21 1.672-.21 1.672a3.277 3.277 0 00-.292 1.422c0 1.087.627 4.055 2.634 4.055 1.923 0 3.303-2.216 6.104-2.216h2.968a227.64 227.64 0 00-6.23 13.087s6.9-3.178 11.457-3.178c6.355 0 9.072 2.927 13.42 2.927 6.063-.042 8.404-6.564 9.366-6.564zM38.758 8.278c2.09 5.268 6.188 8.194 11.205 10.034 8.655 3.22 7.86 10.578 19.734 10.369 0 0-4.222 2.215-9.24 2.215-6.397 0-4.64-4.85-15.051-4.85-9.073 0-7.317-6.354-12.46-6.354-2.048 0-3.72.92-4.431 1.38.502-6.941 2.718-14.467 10.243-12.794zM28.43 22.91c.962-.627 2.76-1.673 4.516-1.673 3.804 0 2.885 6.356 12.459 6.356 9.783 0 7.986 4.808 15.051 4.808 1.255 0 2.383-.084 3.429-.251-1.13 1.296-4.432 4.64-8.655 4.64-2.55 0-3.47-3.01-8.529-3.01-2.174 0-3.763.377-5.686.377-4.724 0-6.062-3.847-8.195-3.847-1.128 0-2.425.878-3.846 2.342-.167-1.297-.544-4.767-.544-7.986V22.91zm4.39 8.989c1.004 0 3.22 3.846 8.195 3.846 1.714 0 3.805-.376 5.686-.376 5.77 0 5.226 4.85 12.585 3.261 0 0-3.01 3.93-7.024 3.93-2.969 0-3.763-1.588-4.976-1.588-2.048 0-4.39 2.007-8.11 2.007-3.722 0-4.767-3.178-8.028-3.178-2.425 0-5.1.962-6.355 1.463 3.303-5.56 6.355-9.365 8.027-9.365zm-8.278-18.438c.502 1.212 1.63 1.463 2.383 2.425-1.84.209-3.47 1.338-4.264 2.007.209-.795.752-2.467 1.881-4.432zm-7.818 32.026c-3.22 0-4.934 2.216-6.104 2.216-.586 0-1.13-1.714-1.13-2.509 0-.836.377-1.212.377-1.212s-.71-1.84.962-1.84c2.55 0 4.39 1.004 5.351 1.004 1.213 0 1.84-1.087 1.84-1.087s-2.258.125-3.805.125c-7.985 0-7.066-6.648-7.066-6.648s-2.132-2.425-2.132-4.348c0-2.968 5.143-3.554 11.456-7.066 0 0 .125-2.09 6.23-4.306.836-.293 2.257-2.383 4.766-2.425-.418 2.3-.586 4.766-.586 7.275 0 3.68.419 7.275.753 9.616-2.341 2.927-4.85 7.066-7.108 11.205h-3.804zm6.731-2.09c1.63-.711 5.059-2.09 7.651-2.09 2.467 0 3.805 3.177 8.028 3.177 4.097 0 6.48-1.965 8.11-1.965.502 0 1.882 1.923 4.976 1.923 1.756 0 3.68-.418 3.68-.418s-2.76 3.972-9.157 3.972c-2.509 0-4.474 4.013-8.99 4.013-4.055 0-5.769-3.512-9.532-3.512-4.557 0-7.567 1.715-8.947 2.718a132.839 132.839 0 014.181-7.819zm-7.108 13.797s2.55-7.192 11.874-7.192c3.136 0 4.934 3.512 9.491 3.512 6.606 0 6.188-5.686 14.215-4.306 0 0-2.968 2.509-4.348 2.509-2.383 0-3.68 6.522-9.365 6.522-3.763 0-6.899-2.927-13.421-2.927-3.512.042-8.446 1.882-8.446 1.882z" fill="#fff"/><path d="M19.609 24.165c-2.927 0-3.01 2.885-3.01 2.885s1.588-1.38 3.428-1.38c1.881 0 .836-1.505-.418-1.505z" fill="#fff"/><path d="M20.53 18.521s.668-4.933 4.64-9.281c.084 3.345 1.714 3.72 2.634 4.682 1.17-3.888 4.348-9.658 12.46-7.316 1.379 3.512 3.302 7.233 10.41 9.867 9.825 3.637 8.278 11.08 20.235 10.243C65.934 14.048 53.6 5.06 39.176 5.06c-14.132 0-26.256 8.613-31.44 20.863 2.006-.92 4.515-1.798 7.107-3.22.585-1.087 2.049-2.634 5.686-4.18zm42.645 17.142c.334-.084.752-.209.752-.209s-1.38 2.968-4.306 5.686c.25-.042.502-.125.502-.125s-.21.669-.795 1.672l9.658 12.836A33.925 33.925 0 0073.21 39.09c0-3.386-.502-6.647-1.422-9.7-1.254.962-3.01 1.924-5.31 2.635-.585.961-1.755 2.34-3.302 3.637zM16.724 47.495c-2.592 0-4.056 2.216-6.104 2.216-2.342 0-3.136-3.136-3.136-4.515 0-.502.083-.962.25-1.422 0 0-.125-.627.126-1.463-.71-.544-2.509-2.3-2.718-5.645a50.263 50.263 0 00-.083 2.509c0 5.937 1.547 11.54 4.223 16.431h5.644c1.087-2.3 2.467-5.1 4.014-8.07h-2.216v-.041zM47.58 51.76c1.421 0 4.348-2.51 4.348-2.51-8.028-1.379-7.61 4.307-14.216 4.307-4.557 0-6.355-3.512-9.49-3.512-9.282 0-11.874 7.191-11.874 7.191s4.892-1.84 8.445-1.84c6.523 0 9.658 2.886 13.421 2.886 5.686 0 6.982-6.523 9.365-6.523zm-9.366 6.02c-3.72 0-6.815-2.927-13.42-2.927-2.635 0-5.896.962-7.526 1.505 1.045-1.923 4.055-5.895 10.954-5.895 2.884 0 4.808 3.512 9.49 3.512 6.48 0 6.44-5.1 13.045-4.473-1.087.836-2.509 1.714-3.178 1.714-2.759.041-3.93 6.564-9.365 6.564z" fill="#FFC72C"/><path d="M19.275 51.174c1.38-1.003 4.39-2.675 8.947-2.675 3.763 0 5.477 3.512 9.533 3.512 4.557 0 6.48-4.014 8.989-4.014 6.397 0 9.156-3.972 9.156-3.972s-1.923.418-3.68.418c-3.093 0-4.473-1.923-4.974-1.923-1.631 0-4.014 2.007-8.112 2.007-4.222 0-5.602-3.178-8.027-3.178-2.592 0-6.02 1.38-7.651 2.09a129.52 129.52 0 00-4.181 7.735zm11.832-9.407c2.174 0 3.68 3.178 8.027 3.178 4.098 0 6.732-1.965 8.07-1.965.334 0 1.84 1.923 5.017 1.923.836 0 1.672-.084 2.383-.167-1.254 1.129-3.763 2.801-7.86 2.801-2.676 0-4.725 4.014-8.99 4.014-3.888 0-5.56-3.512-9.532-3.512-3.428 0-6.02.961-7.735 1.84 1.13-2.133 2.216-4.223 3.303-6.105 1.464-.669 4.85-2.007 7.317-2.007zm14.298-15.679c10.41 0 8.654 4.85 15.051 4.85 5.017 0 9.24-2.216 9.24-2.216-11.874.21-11.08-7.15-19.734-10.369-4.975-1.84-9.073-4.766-11.205-10.034-7.567-1.672-9.741 5.812-10.243 12.794.71-.46 2.383-1.38 4.432-1.38 5.142-.042 3.386 6.355 12.459 6.355zm-6.94-17.35c1.964 4.724 5.56 7.901 11.33 10.034 7.902 2.926 7.65 9.532 17.727 10.327-1.672.627-4.223 1.337-7.024 1.337-6.104 0-4.557-4.85-15.051-4.85-8.864 0-6.983-6.354-12.501-6.354-1.59 0-2.927.501-3.847 1.003.67-6.48 2.676-12.877 9.365-11.498z" fill="#FFC72C"/><path d="M28.43 24.668c0 3.219.377 6.689.544 8.069 1.421-1.464 2.717-2.342 3.846-2.342 2.133 0 3.512 3.847 8.195 3.847 1.923 0 3.512-.376 5.686-.376 5.059 0 5.979 3.01 8.53 3.01 4.222 0 7.525-3.345 8.654-4.641-1.046.167-2.174.25-3.429.25-7.066 0-5.268-4.849-15.051-4.849-9.575 0-8.655-6.355-12.46-6.355-1.755 0-3.553 1.045-4.515 1.672v1.715zm.502-1.506c.92-.585 2.509-1.463 4.055-1.463 3.345 0 2.802 6.355 12.46 6.355 9.574 0 7.734 4.85 15.051 4.85.753 0 1.463-.042 2.174-.126-1.505 1.506-4.18 3.554-7.4 3.554-2.3 0-3.387-3.01-8.53-3.01-2.299 0-3.595.376-5.685.376-4.474 0-5.812-3.846-8.195-3.846-1.003 0-2.174.627-3.47 1.84-.21-1.673-.46-4.432-.46-7.066-.042.041 0-1.087 0-1.464z" fill="#FFC72C"/><path d="M31.106 39.76c3.262 0 4.307 3.178 8.07 3.178 3.762 0 6.062-1.965 8.069-1.965 1.254 0 2.007 1.589 4.975 1.589 4.014 0 7.024-3.93 7.024-3.93-7.358 1.588-6.815-3.261-12.584-3.261-1.882 0-3.972.376-5.686.376-4.976 0-7.192-3.847-8.195-3.847-1.673 0-4.683 3.805-8.07 9.324 1.297-.502 3.973-1.464 6.397-1.464zm1.715-7.4c.501 0 3.219 3.847 8.194 3.847 2.216 0 3.429-.377 5.686-.377 5.227 0 4.976 4.223 11.289 3.47-1.129 1.13-3.22 2.76-5.728 2.76-2.843 0-3.512-1.589-4.975-1.589-2.133 0-4.516 2.007-8.111 2.007-3.596 0-4.558-3.178-8.07-3.178-1.84 0-3.762.502-5.184 1.004 4.557-7.317 6.397-7.944 6.899-7.944z" fill="#FFC72C"/><path d="M86.001 42.143h.878v-.585h-4.766v.585h1.296c.544 0 .627.46.627 2.968v6.063c0 3.972 3.094 4.85 5.101 4.85 2.718 0 5.728-1.38 5.728-5.561v-8.027c0-.168.209-.21.418-.21h.92v-.585h-4.056v.586h1.254c.502 0 .711.083.711 3.219v4.892c0 4.431-3.177 4.891-4.64 4.891-1.38 0-4.056-.501-4.056-4.306v-8.446c.084-.334.334-.334.585-.334zm21.449 1.337l9.784 12.167c.041.042.083.084.167.084.167 0 .167-.125.167-.334V42.352c0-.167.209-.209.46-.209h.92v-.585h-4.056v.585h1.255c.501 0 .71.084.71 3.22v7.734h-.041l-9.24-11.54h-2.802v.586h1.004c.794 0 .961.836.961 1.63v10.955c0 .167-.209.209-.418.209h-.961v.585h4.055v-.585h-1.254c-.502 0-.711-.042-.711-3.22v-8.236zm21.91 11.499h-.919v.585h4.766v-.585h-1.254c-.502 0-.711-.084-.711-3.22v-9.365c0-.21.251-.21.502-.21h.878V41.6h-4.725v.585h1.296c.544 0 .627.46.627 2.968v9.617c0 .167-.209.209-.46.209zm14.799-12.835h1.046v-.586h-4.349v.586h.46c.669 0 .837 0 1.087.668 1.756 4.181 4.85 11.373 5.227 12.836.083.209.125.293.209.293.167 0 .25-.251.501-.878 2.383-6.146 4.725-11.916 4.976-12.71.083-.21.125-.251.251-.251h1.003v-.586h-4.181v.586h1.171c.418 0 .669 0 .669.376 0 .71-1.004 3.721-3.972 10.787-2.007-4.892-4.558-10.913-4.558-11.038.042-.083.251-.083.46-.083zm19.524 12.835h-.92v.585h9.742c.292-.92.543-1.756.543-1.881a.18.18 0 00-.167-.167c-.167 0-.209.125-.251.209-.46 1.087-3.721 1.087-4.808 1.087h-1.421c-.753 0-.92 0-.92-3.094v-3.554h2.801c2.592 0 2.592.084 2.592.585v.837h.544v-3.68h-.544v.878c0 .502-.125.711-3.303.711h-2.09v-5.017c0-.21.376-.21.794-.21h1.631c1.003 0 2.341.043 3.261.294.376.125.627.25.669.585.042.125.042.25.209.25.167 0 .167-.125.209-.375l.209-1.506h-10.369v.586h1.296c.544 0 .627.46.627 2.968v9.7c.084.167-.083.209-.334.209zm22.996-5.729c4.306 6.147 4.473 6.314 4.933 6.314h2.258v-.586c-.711 0-.962 0-1.254-.25-.711-.586-2.3-2.634-4.516-5.77 2.007-.376 3.554-1.63 3.554-3.763 0-1.84-1.463-3.637-4.348-3.637h-5.812v.585h1.296c.544 0 .628.418.628 2.968v9.658c0 .168-.209.21-.46.21h-.92v.585h4.724v-.586h-1.254c-.502 0-.711-.083-.711-3.219v-2.508h1.882zm-1.84-6.73c0-.21.376-.21.836-.21h.962c3.219 0 3.596 2.425 3.596 3.303 0 2.425-2.175 3.052-4.14 3.052h-1.212V42.52h-.042zm20.195 12.75c-1.004 0-3.178-.459-3.471-1.671-.041-.168-.083-.418-.292-.418-.126 0-.209.083-.209.25 0 .168.125.878.292 1.965.962.377 2.3.586 3.303.586 2.634 0 5.185-1.505 5.185-4.265 0-4.85-7.233-3.345-7.233-7.15 0-1.128.919-2.675 3.135-2.675.669 0 2.509.25 2.634 1.17.042.168.042.293.209.293.168 0 .209-.125.209-.25v-1.506c-.71-.334-1.672-.418-2.383-.418-2.466 0-4.891 1.589-4.891 3.847 0 4.975 7.149 3.093 7.149 7.4.042 1.84-1.756 2.843-3.637 2.843zm14.591-.291h-.92v.585h4.724v-.585h-1.212c-.502 0-.711-.084-.711-3.22v-9.365c0-.21.251-.21.502-.21h.878V41.6h-4.767v.585h1.296c.544 0 .628.46.628 2.968v9.617c.041.167-.168.209-.418.209zm23.456-11.665c.084.125.126.292.293.292.125 0 .209-.041.209-.167 0-.125-.042-.334-.585-1.881h-10.662c-.543 1.547-.585 1.756-.585 1.881 0 .126.125.167.209.167.167 0 .209-.167.293-.292.501-1.087 3.386-1.087 4.682-1.087v12.542c0 .168-.209.21-.46.21h-1.588v.585h5.769v-.586h-1.589c-.501 0-.71-.041-.71-3.219v-9.532c1.338 0 4.222 0 4.724 1.087zm14.339 8.446v-2.3l3.595-6.648c.251-.418.335-.627.627-.669h.753v-.585h-3.93v.585h1.421c.209 0 .335 0 .335.293 0 .46-1.422 3.093-3.094 6.271-1.338-2.3-3.721-6.271-3.721-6.48 0-.084.042-.084.376-.084h1.004v-.585h-4.516v.585h.753c.502 0 .585 0 1.087.794.92 1.422 2.174 3.638 3.93 6.523v5.268c0 .167-.209.209-.418.209h-.92v.585h4.724v-.585h-1.254c-.502.041-.752-.042-.752-3.178zM88.97 35.12c-1.84 0-5.77-.795-6.271-3.052-.042-.335-.126-.711-.502-.711-.25 0-.418.167-.418.46 0 .292.25 1.589.543 3.553 1.715.67 4.14 1.088 5.98 1.088 4.724 0 9.364-2.76 9.364-7.735 0-8.78-13.086-6.02-13.086-12.961 0-2.049 1.63-4.808 5.686-4.808 1.213 0 4.516.46 4.725 2.09.041.335.083.544.418.544.334 0 .376-.251.376-.46V10.41c-1.296-.585-3.01-.752-4.306-.752-4.474 0-8.822 2.885-8.822 6.94 0 8.99 12.96 5.603 12.96 13.42.043 3.346-3.26 5.102-6.647 5.102zM113.681 9.7c0-.168-.084-.294-.251-.294-.293 0-1.213.168-2.091.419L101.263 33.74c-.334.794-.418.794-2.3.794v1.087h8.112v-1.087h-2.592c-.962 0-1.004-.669-1.004-1.003 0-1.087 1.004-4.14 2.383-7.61h9.366c1.254 3.387 2.843 7.902 2.843 8.195 0 .334-.084.418-.753.418h-2.007v1.087h8.195v-1.087h-1.463c-.878 0-1.38-1.212-1.965-2.509-1.464-3.512-7.108-19.525-7.108-21.155.042-.753.711-.67.711-1.17zm1.045 14.967h-8.32c1.38-3.596 2.592-6.48 4.683-11.247l3.637 11.247zm10.453-13.212h2.341c1.004 0 1.129.794 1.129 5.351v17.435c0 .334-.376.418-.794.418h-1.631v1.087h8.571v-1.087h-2.258c-.878 0-1.338-.126-1.338-5.812V11.831c0-.376.46-.376.92-.376h1.589v-1.087h-8.571v1.087h.042zm30.476 0h2.216c.878 0 1.296.125 1.296 5.811V31.19h-.083L142.36 10.368h-5.059v1.087h1.798c1.38 0 1.756 1.505 1.756 2.926V34.2c0 .334-.376.418-.795.418h-1.63v1.087h7.317v-1.087h-2.216c-.878 0-1.296-.125-1.296-5.811V13.838h.083l17.686 22.033c.083.084.167.168.292.168.293 0 .293-.251.293-.586V11.831c0-.335.376-.376.794-.376h1.631v-1.087h-7.317v1.087h-.042zm26.3 23.163h-2.885c-.878 0-1.338-.126-1.338-5.812V11.581c2.384 0 7.61-.042 8.488 1.965.125.25.251.502.502.502.209 0 .418-.084.418-.335 0-.209-.084-.585-1.087-3.386H166.82c-1.003 2.8-1.087 3.177-1.087 3.386 0 .25.209.335.418.335.293 0 .418-.293.502-.502.878-2.007 6.104-1.965 8.487-1.965V34.2c0 .334-.376.418-.794.418h-2.885v1.087h10.452v-1.087h.042zm17.432-23.163h2.342c1.003 0 1.129.794 1.129 5.351v17.435c0 .334-.335.418-.795.418h-1.63v1.087h17.643c.502-1.672 1.004-3.136 1.004-3.387a.286.286 0 00-.293-.292c-.293 0-.376.209-.418.418-.794 1.965-6.731 1.965-8.696 1.965h-2.551c-1.338 0-1.63 0-1.63-5.56V11.83c0-.376.418-.376.919-.376H208v-1.087h-8.571v1.087h-.042zm28.223.209h2.968c1.84 0 4.223.042 5.895.543.628.21 1.129.46 1.171 1.087.042.251.084.502.418.502.293 0 .293-.209.376-.669l.377-2.76h-18.731v1.088h2.341c1.004 0 1.129.794 1.129 5.351v17.435c0 .334-.376.418-.794.418h-1.631v1.087h17.602c.502-1.672 1.004-3.136 1.004-3.387a.286.286 0 00-.293-.292c-.293 0-.376.209-.418.418-.795 1.965-6.731 1.965-8.697 1.965h-2.55c-1.338 0-1.63 0-1.63-5.603v-6.48h5.058c4.683 0 4.683.125 4.683 1.045v1.463h1.004V18.27h-1.004v1.588c0 .878-.251 1.296-5.937 1.296h-3.804v-9.072c0-.418.71-.418 1.463-.418zm28.598-2.048c-7.902 0-13.045 6.438-13.045 13.797 0 7.567 4.223 13.044 12.418 13.044 7.902 0 13.044-6.438 13.044-13.797 0-7.61-4.223-13.044-12.417-13.044zm.083 25.629c-5.226 0-10.536-3.637-10.536-12.585 0-9.24 5.77-11.832 9.742-11.832 5.226 0 10.536 3.638 10.536 12.585 0 9.24-5.812 11.832-9.742 11.832zm7.151 18.145a.572.572 0 00-.585-.586h-.837v2.007h.377v-.794h.251l.376.794h.418l-.376-.836a.61.61 0 00.376-.585zm-.585.25h-.46v-.418h.46c.125 0 .209.084.209.21 0 .083-.084.209-.209.209z" fill="#205C40"/><path d="M262.732 52.053c-.961 0-1.756.794-1.756 1.756 0 .961.795 1.756 1.756 1.756.962 0 1.756-.795 1.756-1.756 0-.962-.794-1.756-1.756-1.756zm0 3.135a1.392 1.392 0 01-1.379-1.38c0-.752.627-1.38 1.379-1.38.753 0 1.38.628 1.38 1.38 0 .753-.627 1.38-1.38 1.38zM12.46 61s7.734-3.637 12.375-3.637c6.188 0 8.989 2.926 13.42 2.926 3.973 0 6.607-2.801 8.07-4.724h22.744l-9.658-12.877c.544-1.004.795-1.673.795-1.673s-.251.042-.502.126c2.927-2.718 4.306-5.728 4.306-5.728s-.418.125-.752.209a20.497 20.497 0 003.345-3.596c2.299-.71 4.013-1.672 5.31-2.634a33.806 33.806 0 011.42 9.7c0 5.937-1.546 11.54-4.222 16.431h.544a34.582 34.582 0 004.139-16.431c0-3.512-.502-6.857-1.464-10.034.711-.586 1.255-1.13 1.63-1.59a36.797 36.797 0 011.882 11.624c0 5.895-1.38 11.497-3.888 16.431h2.801a39.048 39.048 0 003.596-16.431C78.309 17.518 60.79 0 39.134 0 17.518 0 0 17.518 0 39.134a39.333 39.333 0 003.596 16.43h2.8a36.595 36.595 0 01-3.887-16.43c0-2.3.209-4.558.627-6.732.292 1.255 1.003 2.425 1.588 3.261a31.627 31.627 0 00-.167 3.47c0 5.938 1.505 11.54 4.14 16.432h.543a33.925 33.925 0 01-4.223-16.431c0-.837.042-1.673.084-2.509.209 3.345 2.007 5.1 2.717 5.644-.25.837-.125 1.464-.125 1.464-.167.46-.25.92-.25 1.421 0 1.422.793 4.516 3.135 4.516 2.09 0 3.512-2.216 6.104-2.216h2.174c-1.547 2.968-2.927 5.811-4.014 8.069A392.973 392.973 0 0012.46 61zM39.133 2.509c15.762 0 29.183 9.95 34.367 23.915-.752.125-1.463.167-2.09.25C66.393 13.755 53.85 4.6 39.175 4.6c-14.507 0-26.925 8.947-32.067 21.616-1.171.585-2.133 1.17-2.843 1.881C8.905 13.254 22.786 2.509 39.134 2.509zm31.775 24.207c-11.958.795-10.41-6.648-20.236-10.285-7.108-2.634-8.989-6.355-10.41-9.867-8.111-2.3-11.247 3.428-12.46 7.317-.92-.92-2.592-1.338-2.634-4.683-3.972 4.348-4.64 9.282-4.64 9.282-3.638 1.547-5.101 3.094-5.687 4.18-2.634 1.38-5.1 2.3-7.107 3.22 5.184-12.25 17.309-20.863 31.44-20.863 14.425.042 26.758 9.031 31.734 21.7zM16.724 46.994c-2.801 0-4.223 2.216-6.104 2.216-2.007 0-2.634-2.969-2.634-4.056 0-.585.125-1.045.292-1.421 0 0-.167-.92.21-1.673 0 0-2.844-1.714-2.844-6.062-.71-.92-2.132-2.968-2.132-4.85 0-4.474 6.313-5.017 11.707-8.111.501-1.087 1.965-2.634 5.77-4.18.292-1.506 1.254-5.394 3.888-8.488.292 2.676 2.09 3.094 3.219 4.39 1.63-5.812 5.143-9.658 11.874-7.777 2.592 6.564 7.024 8.613 10.578 9.909 10.577 3.93 7.776 12.208 23.33 9.95 0 0-2.217 3.304-7.61 4.809-.92 1.296-2.843 3.595-5.477 5.142 1.296-.292 2.258-.585 2.258-.585s-1.965 3.554-5.185 5.895a38.76 38.76 0 001.59-.376s-1.673 3.972-6.022 6.23c.67.167 1.171.334 1.547.501-1.003 1.087-4.724 4.808-7.274 4.808-.962 0-3.345 6.523-9.407 6.523-4.307 0-7.025-2.885-13.421-2.885-4.558 0-11.456 3.135-11.456 3.135s2.718-6.271 6.313-13.044h-3.01z" fill="#205C40"/><path d="M24.834 54.896c6.606 0 9.7 2.926 13.42 2.926 5.436 0 6.607-6.522 9.366-6.522.711 0 2.09-.878 3.178-1.714-6.606-.627-6.564 4.473-13.045 4.473-4.682 0-6.648-3.512-9.49-3.512-6.857 0-9.91 3.972-10.955 5.896 1.63-.586 4.892-1.547 7.526-1.547z" fill="#205C40"/><path d="M47.204 42.98c-1.338 0-3.972 1.964-8.07 1.964-4.39 0-5.894-3.177-8.068-3.177-2.467 0-5.812 1.338-7.275 2.007-1.087 1.881-2.174 3.93-3.303 6.104 1.714-.92 4.306-1.84 7.735-1.84 3.972 0 5.644 3.512 9.532 3.512 4.265 0 6.313-4.014 8.99-4.014 4.097 0 6.605-1.672 7.86-2.8-.711.083-1.547.166-2.384.166-3.177-.041-4.682-1.923-5.017-1.923zm-1.798-17.393c10.494 0 8.947 4.85 15.051 4.85 2.843 0 5.352-.71 7.024-1.338-10.034-.794-9.825-7.4-17.727-10.327-5.77-2.132-9.407-5.352-11.33-10.034-6.69-1.38-8.697 5.017-9.366 11.497.92-.501 2.3-.961 3.847-.961 5.56-.042 3.68 6.313 12.501 6.313z" fill="#205C40"/><path d="M32.822 29.893c2.383 0 3.72 3.847 8.194 3.847 2.09 0 3.345-.376 5.686-.376 5.143 0 6.23 3.01 8.53 3.01 3.219 0 5.895-2.049 7.4-3.554-.711.042-1.422.126-2.174.126-7.317 0-5.477-4.85-15.052-4.85-9.658 0-9.114-6.355-12.459-6.355-1.547 0-3.136.878-4.056 1.463a69.8 69.8 0 01-.041 1.505c0 2.592.25 5.393.46 7.066 1.338-1.255 2.466-1.882 3.512-1.882z" fill="#205C40"/><path d="M31.107 39.258c3.512 0 4.474 3.178 8.028 3.178 3.595 0 5.978-1.965 8.11-1.965 1.464 0 2.133 1.589 4.976 1.589 2.508 0 4.599-1.631 5.728-2.76-6.313.753-6.063-3.47-11.289-3.47-2.258 0-3.47.376-5.686.376-4.975 0-7.693-3.846-8.195-3.846-.46 0-2.34.627-6.898 7.902 1.463-.46 3.386-1.004 5.226-1.004zm-3.471-5.017c-.334-2.341-.752-5.937-.752-9.616 0-2.467.167-4.976.543-7.275-2.467.042-3.93 2.132-4.766 2.425-6.104 2.216-6.23 4.306-6.23 4.306-6.313 3.512-11.456 4.098-11.456 7.108 0 1.923 2.133 4.348 2.133 4.348s-.92 6.648 7.024 6.648c1.547 0 3.804-.126 3.804-.126s-.627 1.087-1.84 1.087c-.961 0-2.8-.961-5.351-.961-1.63 0-.962 1.84-.962 1.84s-.376.376-.376 1.212.502 2.508 1.129 2.508c1.17 0 2.885-2.215 6.104-2.215h3.805c2.341-4.181 4.85-8.362 7.191-11.289zm-11.038-7.233s.084-2.885 3.01-2.885c1.255 0 2.3 1.505.419 1.505-1.84.042-3.429 1.38-3.429 1.38zm7.945-13.546c-1.129 1.965-1.672 3.637-1.882 4.432.837-.67 2.425-1.798 4.265-2.007-.753-.962-1.881-1.213-2.383-2.425z" fill="#205C40"/></svg>